<svg xmlns="http://www.w3.org/2000/svg" width="640" height="300" viewBox="0 0 640 300" role="img" aria-label="Placeholder screenshot">
  <rect width="640" height="300" fill="#f6f8fa" />
  <rect x="32" y="32" width="576" height="236" rx="8" fill="#ffffff" stroke="#d8dee4" />
  <rect x="32" y="32" width="576" height="36" fill="#f0f2f4" />
  <rect x="56" y="44" width="140" height="12" rx="6" fill="#59636e" />
  <rect x="240" y="44" width="140" height="12" rx="6" fill="#59636e" />
  <rect x="424" y="44" width="140" height="12" rx="6" fill="#59636e" />
  <rect x="32" y="88" width="576" height="36" fill="#ffe3d6" />
  <rect x="56" y="100" width="140" height="12" rx="6" fill="#b35900" />
  <rect x="240" y="100" width="140" height="12" rx="6" fill="#b35900" />
  <rect x="424" y="100" width="100" height="12" rx="6" fill="#b35900" />
  <rect x="56" y="148" width="140" height="12" rx="6" fill="#8c959f" />
  <rect x="240" y="148" width="140" height="12" rx="6" fill="#8c959f" />
  <rect x="424" y="148" width="100" height="12" rx="6" fill="#8c959f" />
  <rect x="32" y="180" width="576" height="36" fill="#ffe3d6" />
  <rect x="56" y="192" width="140" height="12" rx="6" fill="#b35900" />
  <rect x="240" y="192" width="140" height="12" rx="6" fill="#b35900" />
  <rect x="424" y="192" width="100" height="12" rx="6" fill="#b35900" />
  <text x="320" y="250" text-anchor="middle" font-family="Segoe UI, sans-serif" font-size="14" fill="#8c959f">
    Clearance issues highlighted in a schedule
  </text>
</svg>
